<?xml version="1.0" encoding="UTF-8"?>
<svg width="220px" height="227px" viewBox="0 0 220 227" version="1.1" xmlns="http://www.w3.org/2000/svg" xmlns:xlink="http://www.w3.org/1999/xlink">
    <title>Artboard</title>
    <g id="Artboard" stroke="none" stroke-width="1" fill="none" fill-rule="evenodd">
        <g id="Group-3" transform="translate(9.772487, 19.661081)" fill="#FFFFFF" fill-rule="nonzero">
            <g id="A" transform="translate(97.460870, 97.469381) rotate(-8.000000) translate(-97.460870, -97.469381) translate(11.170870, 11.169381)">
                <path d="M160.19,13.2 C162.59,13.2 164.656667,13.3333333 166.39,13.6 C168.123333,13.8666667 169.39,14.2666667 170.19,14.8 C170.99,15.3333333 171.623333,15.8666667 172.09,16.4 C172.556667,16.9333333 172.69,17.5666667 172.49,18.3 C172.29,19.0333333 172.056667,19.7 171.79,20.3 C171.523333,20.9 171.056667,21.6 170.39,22.4 C169.723333,23.2 169.19,23.8 168.79,24.2 C168.39,24.6 167.89,25.1 167.29,25.7 C166.69,26.3 166.39,26.6 166.39,26.6 C150.656667,42.2 140.456667,62.3333333 135.79,87 C136.99,86.8666667 137.79,86.6 138.19,86.2 C139.523333,84.8666667 140.79,84.9333333 141.99,86.4 C143.456667,88.4 142.39,90.4666667 138.79,92.6 L135.59,94.2 C135.456667,94.2 135.123333,94.3333333 134.59,94.6 C133.39,103.133333 132.79,112.266667 132.79,122 C132.79,125.733333 133.59,128.966667 135.19,131.7 C136.79,134.433333 138.79,136.4 141.19,137.6 C143.59,138.8 145.723333,139.666667 147.59,140.2 C149.456667,140.733333 151.123333,141 152.59,141 C154.456667,141 155.39,141.533333 155.39,142.6 C155.39,143.4 154.99,143.8 154.19,143.8 C150.59,143.8 147.556667,144.8 145.09,146.8 C142.623333,148.8 140.79,151.2 139.59,154 C138.39,156.8 137.323333,159.6 136.39,162.4 C135.456667,165.2 134.456667,167.6 133.39,169.6 C132.323333,171.6 130.99,172.6 129.39,172.6 C127.256667,172.6 124.356667,170.7 120.69,166.9 C117.023333,163.1 113.723333,158.233333 110.79,152.3 C107.856667,146.366667 106.39,140.933333 106.39,136 C106.39,122 108.79,107.866667 113.59,93.6 C109.323333,92.6666667 104.19,91.2 98.19,89.2 C91.79,96.1333333 85.7566667,102.2 80.09,107.4 C74.4233333,112.6 68.4566667,117.366667 62.19,121.7 C55.9233333,126.033333 49.7233333,129.033333 43.59,130.7 C37.4566667,132.366667 31.59,132.6 25.99,131.4 C20.1233333,129.933333 15.2566667,127.7 11.39,124.7 C7.52333333,121.7 4.85666667,118.666667 3.39,115.6 C1.92333333,112.533333 0.956666667,109.233333 0.49,105.7 C0.0233333333,102.166667 -0.11,99.4666667 0.09,97.6 C0.29,95.7333333 0.523333333,94.2 0.79,93 C1.45666667,90.4666667 2.75666667,86.7333333 4.69,81.8 C6.62333333,76.8666667 8.12333333,74.0666667 9.19,73.4 C9.99,73 10.8566667,73.1333333 11.79,73.8 C12.7233333,74.4666667 14.3566667,75.5 16.69,76.9 C19.0233333,78.3 21.6566667,79.4 24.59,80.2 C29.6566667,81.2666667 33.39,81.4333333 35.79,80.7 C38.19,79.9666667 40.3566667,79.1 42.29,78.1 C44.2233333,77.1 45.6566667,76.7333333 46.59,77 C47.39,77.1333333 47.6566667,78 47.39,79.6 C47.1233333,81.2 46.6566667,82.8666667 45.99,84.6 C45.3233333,86.3333333 45.2233333,88.0666667 45.69,89.8 C46.1566667,91.5333333 47.4566667,92.7333333 49.59,93.4 C55.8566667,95 64.5233333,91.2 75.59,82 C71.59,80.8 68.7233333,80.3333333 66.99,80.6 C65.6566667,80.6 66.0566667,79.6 68.19,77.6 C71.1233333,74.6666667 72.6566667,72.6 72.79,71.4 C72.79,69.6666667 72.8233333,68.3 72.89,67.3 C72.9566667,66.3 73.2566667,65.3 73.79,64.3 C74.3233333,63.3 75.1233333,62.8 76.19,62.8 C79.5233333,65.0666667 83.4566667,67.6 87.99,70.4 C91.59,66.9333333 96.9566667,61.4 104.09,53.8 C111.223333,46.2 117.423333,39.8 122.69,34.6 C127.956667,29.4 132.723333,25.3333333 136.99,22.4 C126.99,20.9333333 118.923333,20.7333333 112.79,21.8 C106.656667,22.8666667 101.756667,24.7666667 98.09,27.5 C94.4233333,30.2333333 91.8566667,33.0666667 90.39,36 C88.9233333,38.9333333 87.9233333,41.5333333 87.39,43.8 C86.8566667,46.0666667 86.5233333,47.2 86.39,47.2 C85.8566667,47.0666667 84.2566667,46.1333333 81.59,44.4 C78.9233333,42.6666667 75.8233333,41.1666667 72.29,39.9 C68.7566667,38.6333333 65.39,38.4666667 62.19,39.4 C55.6566667,41.1333333 52.59,41 52.99,39 C53.9233333,27.8 57.1566667,18.5 62.69,11.1 C68.2233333,3.7 76.0566667,0 86.19,0 C93.1233333,0 99.5233333,0.433333333 105.39,1.3 C111.256667,2.16666667 116.29,3.3 120.49,4.7 C124.69,6.1 128.223333,7.43333333 131.09,8.7 C133.956667,9.96666667 136.756667,11.4 139.49,13 C142.223333,14.6 144.123333,15.6 145.19,16 C146.79,15.2 148.856667,14.5666667 151.39,14.1 C153.923333,13.6333333 155.99,13.4 157.59,13.4 L160.19,13.2 Z M152.59,30 C152.723333,29.8666667 152.756667,29.6666667 152.69,29.4 C152.623333,29.1333333 152.39,29 151.99,29 L150.79,28.8 C147.856667,31.0666667 144.19,34.7333333 139.79,39.8 C135.39,44.8666667 129.723333,51.6666667 122.79,60.2 C115.856667,68.7333333 110.123333,75.5333333 105.59,80.6 C110.656667,83.1333333 114.39,84.5333333 116.79,84.8 C120.523333,75.8666667 125.156667,67.0666667 130.69,58.4 C136.223333,49.7333333 140.556667,43.5333333 143.69,39.8 C146.823333,36.0666667 149.79,32.8 152.59,30 Z" id="Shape"></path>
            </g>
        </g>
    </g>
</svg>